<?xml version="1.0" encoding="UTF-8" standalone="no"?>
<!DOCTYPE svg PUBLIC "-//W3C//DTD SVG 1.1//EN"
 "http://www.w3.org/Graphics/SVG/1.1/DTD/svg11.dtd">
<!-- Generated by graphviz version 2.38.0 (20140413.2041)
 -->
<!-- Title: FiftyOne.GeoLocation.DigitalElement.FlowElements.DigitalElementEngine Pages: 1 -->
<svg width="1077pt" height="78pt"
 viewBox="0.00 0.00 1077.00 77.50" xmlns="http://www.w3.org/2000/svg" xmlns:xlink="http://www.w3.org/1999/xlink">
<g id="graph0" class="graph" transform="scale(1 1) rotate(0) translate(4 73.5)">
<title>FiftyOne.GeoLocation.DigitalElement.FlowElements.DigitalElementEngine</title>
<!-- Node0 -->
<g id="node1" class="node"><title>Node0</title>
<g id="a_node1"><a xlink:title="The DigitalElementEngine is used to retrieve postal address details based on supplied latitude and lo...">
<polygon fill="#bfbfbf" stroke="black" points="886,-16.5 886,-57.5 1069,-57.5 1069,-16.5 886,-16.5"/>
<text text-anchor="start" x="894" y="-45.5" font-family="Helvetica,sans-Serif" font-size="10.00">FiftyOne.GeoLocation.Digital</text>
<text text-anchor="start" x="894" y="-34.5" font-family="Helvetica,sans-Serif" font-size="10.00">Element.FlowElements.DigitalElement</text>
<text text-anchor="middle" x="977.5" y="-23.5" font-family="Helvetica,sans-Serif" font-size="10.00">Engine</text>
</a>
</g>
</g>
<!-- Node1 -->
<g id="node2" class="node"><title>Node1</title>
<g id="a_node2"><a xlink:href="class_fifty_one_1_1_geo_location_1_1_digital_element_1_1_flow_elements_1_1_digital_element_engine_base.html" target="_top" xlink:title=" ">
<polygon fill="none" stroke="black" points="703,-22 703,-52 849,-52 849,-22 703,-22"/>
<text text-anchor="start" x="711" y="-40" font-family="Helvetica,sans-Serif" font-size="10.00">DigitalElementEngineBase</text>
<text text-anchor="middle" x="776" y="-29" font-family="Helvetica,sans-Serif" font-size="10.00">&lt; IAspectPropertyMetaData &gt;</text>
</a>
</g>
</g>
<!-- Node1&#45;&gt;Node0 -->
<g id="edge1" class="edge"><title>Node1&#45;&gt;Node0</title>
<path fill="none" stroke="midnightblue" d="M859.22,-37C867.993,-37 876.953,-37 885.816,-37"/>
<polygon fill="midnightblue" stroke="midnightblue" points="859.024,-33.5001 849.024,-37 859.024,-40.5001 859.024,-33.5001"/>
</g>
<!-- Node2 -->
<g id="node3" class="node"><title>Node2</title>
<g id="a_node3"><a xlink:href="class_fifty_one_1_1_geo_location_1_1_digital_element_1_1_flow_elements_1_1_digital_element_engine_base.html" target="_top" xlink:title="The DigitalElementEngineBase is used to share functionality of the DigitalElementEngine between Cloud...">
<polygon fill="none" stroke="black" points="351,-16.5 351,-57.5 534,-57.5 534,-16.5 351,-16.5"/>
<text text-anchor="start" x="359" y="-45.5" font-family="Helvetica,sans-Serif" font-size="10.00">FiftyOne.GeoLocation.Digital</text>
<text text-anchor="start" x="359" y="-34.5" font-family="Helvetica,sans-Serif" font-size="10.00">Element.FlowElements.DigitalElement</text>
<text text-anchor="middle" x="442.5" y="-23.5" font-family="Helvetica,sans-Serif" font-size="10.00">EngineBase&lt; TMeta &gt;</text>
</a>
</g>
</g>
<!-- Node2&#45;&gt;Node1 -->
<g id="edge2" class="edge"><title>Node2&#45;&gt;Node1</title>
<path fill="none" stroke="orange" stroke-dasharray="5,2" d="M544.186,-37C595.39,-37 656.441,-37 702.891,-37"/>
<polygon fill="orange" stroke="orange" points="544.084,-33.5001 534.084,-37 544.084,-40.5001 544.084,-33.5001"/>
<text text-anchor="middle" x="618.5" y="-40" font-family="Helvetica,sans-Serif" font-size="10.00"> &lt; IAspectPropertyMetaData &gt;</text>
</g>
<!-- Node3 -->
<g id="node4" class="node"><title>Node3</title>
<g id="a_node4"><a xlink:title=" ">
<polygon fill="none" stroke="#bfbfbf" points="165,-39 165,-69 314,-69 314,-39 165,-39"/>
<text text-anchor="start" x="173" y="-57" font-family="Helvetica,sans-Serif" font-size="10.00">OnPremiseAspectEngineBase</text>
<text text-anchor="middle" x="239.5" y="-46" font-family="Helvetica,sans-Serif" font-size="10.00">&lt; IGeoData, TMeta &gt;</text>
</a>
</g>
</g>
<!-- Node3&#45;&gt;Node2 -->
<g id="edge3" class="edge"><title>Node3&#45;&gt;Node2</title>
<path fill="none" stroke="midnightblue" d="M324.336,-46.9094C333.048,-46.1725 341.932,-45.4211 350.717,-44.6782"/>
<polygon fill="midnightblue" stroke="midnightblue" points="323.873,-43.436 314.204,-47.7664 324.463,-50.4111 323.873,-43.436"/>
</g>
<!-- Node4 -->
<g id="node5" class="node"><title>Node4</title>
<g id="a_node5"><a xlink:href="interface_fifty_one_1_1_geo_location_1_1_digital_element_1_1_flow_elements_1_1_i_digital_element_engine.html" target="_top" xlink:title="IDigitalElementEngine takes evidence in the form of latitude and longitude to produce reverse geoloca...">
<polygon fill="none" stroke="black" points="183.5,-0.5 183.5,-19.5 295.5,-19.5 295.5,-0.5 183.5,-0.5"/>
<text text-anchor="middle" x="239.5" y="-7.5" font-family="Helvetica,sans-Serif" font-size="10.00">IDigitalElementEngine</text>
</a>
</g>
</g>
<!-- Node4&#45;&gt;Node2 -->
<g id="edge4" class="edge"><title>Node4&#45;&gt;Node2</title>
<path fill="none" stroke="midnightblue" d="M305.933,-18.7895C320.293,-20.7184 335.745,-22.794 350.894,-24.829"/>
<polygon fill="midnightblue" stroke="midnightblue" points="306.067,-15.2761 295.69,-17.4136 305.135,-22.2138 306.067,-15.2761"/>
</g>
<!-- Node5 -->
<g id="node6" class="node"><title>Node5</title>
<g id="a_node6"><a xlink:title=" ">
<polygon fill="none" stroke="#bfbfbf" points="0,-0.5 0,-19.5 128,-19.5 128,-0.5 0,-0.5"/>
<text text-anchor="middle" x="64" y="-7.5" font-family="Helvetica,sans-Serif" font-size="10.00">IOnPremiseAspectEngine</text>
</a>
</g>
</g>
<!-- Node5&#45;&gt;Node4 -->
<g id="edge5" class="edge"><title>Node5&#45;&gt;Node4</title>
<path fill="none" stroke="midnightblue" d="M138.454,-10C153.528,-10 169.152,-10 183.444,-10"/>
<polygon fill="midnightblue" stroke="midnightblue" points="138.128,-6.5001 128.128,-10 138.128,-13.5001 138.128,-6.5001"/>
</g>
</g>
</svg>
