<?xml version="1.0" encoding="UTF-8" standalone="no"?>
<!DOCTYPE svg PUBLIC "-//W3C//DTD SVG 1.1//EN"
 "http://www.w3.org/Graphics/SVG/1.1/DTD/svg11.dtd">
<!-- Generated by graphviz version 2.38.0 (20140413.2041)
 -->
<!-- Title: FiftyOne.GeoLocation.DigitalElement.FlowElements.DigitalElementEngineBuilder Pages: 1 -->
<svg width="964pt" height="51pt"
 viewBox="0.00 0.00 964.00 51.00" xmlns="http://www.w3.org/2000/svg" xmlns:xlink="http://www.w3.org/1999/xlink">
<g id="graph0" class="graph" transform="scale(1 1) rotate(0) translate(4 47)">
<title>FiftyOne.GeoLocation.DigitalElement.FlowElements.DigitalElementEngineBuilder</title>
<!-- Node4 -->
<g id="node1" class="node"><title>Node4</title>
<g id="a_node1"><a xlink:title="Fluent builder for the DigitalElementEngine.">
<polygon fill="#bfbfbf" stroke="black" points="773,-0.5 773,-41.5 956,-41.5 956,-0.5 773,-0.5"/>
<text text-anchor="start" x="781" y="-29.5" font-family="Helvetica,sans-Serif" font-size="10.00">FiftyOne.GeoLocation.Digital</text>
<text text-anchor="start" x="781" y="-18.5" font-family="Helvetica,sans-Serif" font-size="10.00">Element.FlowElements.DigitalElement</text>
<text text-anchor="middle" x="864.5" y="-7.5" font-family="Helvetica,sans-Serif" font-size="10.00">EngineBuilder</text>
</a>
</g>
</g>
<!-- Node5 -->
<g id="node2" class="node"><title>Node5</title>
<g id="a_node2"><a xlink:href="class_fifty_one_1_1_geo_location_1_1_digital_element_1_1_flow_elements_1_1_digital_element_engine_builder_base.html" target="_top" xlink:title=" ">
<polygon fill="none" stroke="black" points="562,-0.5 562,-41.5 736,-41.5 736,-0.5 562,-0.5"/>
<text text-anchor="start" x="570" y="-29.5" font-family="Helvetica,sans-Serif" font-size="10.00">DigitalElementEngineBuilder</text>
<text text-anchor="start" x="570" y="-18.5" font-family="Helvetica,sans-Serif" font-size="10.00">Base&lt; DigitalElementEngineBuilder,</text>
<text text-anchor="middle" x="649" y="-7.5" font-family="Helvetica,sans-Serif" font-size="10.00"> DigitalElementEngine &gt;</text>
</a>
</g>
</g>
<!-- Node5&#45;&gt;Node4 -->
<g id="edge1" class="edge"><title>Node5&#45;&gt;Node4</title>
<path fill="none" stroke="midnightblue" d="M746.45,-21C755.211,-21 764.065,-21 772.773,-21"/>
<polygon fill="midnightblue" stroke="midnightblue" points="746.223,-17.5001 736.223,-21 746.223,-24.5001 746.223,-17.5001"/>
</g>
<!-- Node6 -->
<g id="node3" class="node"><title>Node6</title>
<g id="a_node3"><a xlink:href="class_fifty_one_1_1_geo_location_1_1_digital_element_1_1_flow_elements_1_1_digital_element_engine_builder_base.html" target="_top" xlink:title="Base fluent builder for the IDigitalElementEngine.">
<polygon fill="none" stroke="black" points="193,-0.5 193,-41.5 387,-41.5 387,-0.5 193,-0.5"/>
<text text-anchor="start" x="201" y="-29.5" font-family="Helvetica,sans-Serif" font-size="10.00">FiftyOne.GeoLocation.Digital</text>
<text text-anchor="start" x="201" y="-18.5" font-family="Helvetica,sans-Serif" font-size="10.00">Element.FlowElements.DigitalElement</text>
<text text-anchor="middle" x="290" y="-7.5" font-family="Helvetica,sans-Serif" font-size="10.00">EngineBuilderBase&lt; TBuilder, TEngine &gt;</text>
</a>
</g>
</g>
<!-- Node6&#45;&gt;Node5 -->
<g id="edge2" class="edge"><title>Node6&#45;&gt;Node5</title>
<path fill="none" stroke="orange" stroke-dasharray="5,2" d="M397.161,-21C449.676,-21 512.246,-21 561.757,-21"/>
<polygon fill="orange" stroke="orange" points="397.139,-17.5001 387.139,-21 397.139,-24.5001 397.139,-17.5001"/>
<text text-anchor="start" x="405" y="-35" font-family="Helvetica,sans-Serif" font-size="10.00"> &lt; DigitalElementEngineBuilder,</text>
<text text-anchor="middle" x="474.5" y="-24" font-family="Helvetica,sans-Serif" font-size="10.00"> DigitalElementEngine &gt;</text>
</g>
<!-- Node7 -->
<g id="node4" class="node"><title>Node7</title>
<g id="a_node4"><a xlink:title=" ">
<polygon fill="none" stroke="#bfbfbf" points="0,-6 0,-36 156,-36 156,-6 0,-6"/>
<text text-anchor="start" x="8" y="-24" font-family="Helvetica,sans-Serif" font-size="10.00">OnPremiseAspectEngineBuilder</text>
<text text-anchor="middle" x="78" y="-13" font-family="Helvetica,sans-Serif" font-size="10.00">Base&lt; TBuilder, TEngine &gt;</text>
</a>
</g>
</g>
<!-- Node7&#45;&gt;Node6 -->
<g id="edge3" class="edge"><title>Node7&#45;&gt;Node6</title>
<path fill="none" stroke="midnightblue" d="M166.187,-21C174.94,-21 183.864,-21 192.705,-21"/>
<polygon fill="midnightblue" stroke="midnightblue" points="166.004,-17.5001 156.004,-21 166.004,-24.5001 166.004,-17.5001"/>
</g>
</g>
</svg>
