<?xml version="1.0" encoding="UTF-8" standalone="no"?>
<!DOCTYPE svg PUBLIC "-//W3C//DTD SVG 1.1//EN"
 "http://www.w3.org/Graphics/SVG/1.1/DTD/svg11.dtd">
<!-- Generated by graphviz version 2.38.0 (20140413.2041)
 -->
<!-- Title: FiftyOne.GeoLocation.Nominatim.FlowElements.NominatimEngine Pages: 1 -->
<svg width="231pt" height="264pt"
 viewBox="0.00 0.00 231.00 264.00" xmlns="http://www.w3.org/2000/svg" xmlns:xlink="http://www.w3.org/1999/xlink">
<g id="graph0" class="graph" transform="scale(1 1) rotate(0) translate(4 260)">
<title>FiftyOne.GeoLocation.Nominatim.FlowElements.NominatimEngine</title>
<!-- Node4 -->
<g id="node1" class="node"><title>Node4</title>
<g id="a_node1"><a xlink:title=" ">
<polygon fill="#bfbfbf" stroke="black" points="8,-0.5 8,-30.5 172,-30.5 172,-0.5 8,-0.5"/>
<text text-anchor="start" x="16" y="-18.5" font-family="Helvetica,sans-Serif" font-size="10.00">FiftyOne.GeoLocation.Nominatim.</text>
<text text-anchor="middle" x="90" y="-7.5" font-family="Helvetica,sans-Serif" font-size="10.00">FlowElements.NominatimEngine</text>
</a>
</g>
</g>
<!-- Node5 -->
<g id="node2" class="node"><title>Node5</title>
<g id="a_node2"><a xlink:href="class_fifty_one_1_1_geo_location_1_1_nominatim_1_1_flow_elements_1_1_nominatim_engine_base.html" target="_top" xlink:title=" ">
<polygon fill="none" stroke="black" points="17,-68.5 17,-98.5 163,-98.5 163,-68.5 17,-68.5"/>
<text text-anchor="start" x="25" y="-86.5" font-family="Helvetica,sans-Serif" font-size="10.00">NominatimEngineBase</text>
<text text-anchor="middle" x="90" y="-75.5" font-family="Helvetica,sans-Serif" font-size="10.00">&lt; IAspectPropertyMetaData &gt;</text>
</a>
</g>
</g>
<!-- Node5&#45;&gt;Node4 -->
<g id="edge1" class="edge"><title>Node5&#45;&gt;Node4</title>
<path fill="none" stroke="midnightblue" d="M90,-58.0322C90,-48.8606 90,-38.7449 90,-30.7931"/>
<polygon fill="midnightblue" stroke="midnightblue" points="86.5001,-58.1789 90,-68.179 93.5001,-58.179 86.5001,-58.1789"/>
</g>
<!-- Node6 -->
<g id="node3" class="node"><title>Node6</title>
<g id="a_node3"><a xlink:href="class_fifty_one_1_1_geo_location_1_1_nominatim_1_1_flow_elements_1_1_nominatim_engine_base.html" target="_top" xlink:title=" ">
<polygon fill="none" stroke="black" points="0,-146.5 0,-187.5 180,-187.5 180,-146.5 0,-146.5"/>
<text text-anchor="start" x="8" y="-175.5" font-family="Helvetica,sans-Serif" font-size="10.00">FiftyOne.GeoLocation.Nominatim.</text>
<text text-anchor="start" x="8" y="-164.5" font-family="Helvetica,sans-Serif" font-size="10.00">FlowElements.NominatimEngineBase</text>
<text text-anchor="middle" x="90" y="-153.5" font-family="Helvetica,sans-Serif" font-size="10.00">&lt; TMeta &gt;</text>
</a>
</g>
</g>
<!-- Node6&#45;&gt;Node5 -->
<g id="edge2" class="edge"><title>Node6&#45;&gt;Node5</title>
<path fill="none" stroke="orange" stroke-dasharray="5,2" d="M90,-136.025C90,-123.258 90,-108.97 90,-98.6846"/>
<polygon fill="orange" stroke="orange" points="86.5001,-136.271 90,-146.271 93.5001,-136.271 86.5001,-136.271"/>
<text text-anchor="middle" x="156.5" y="-120" font-family="Helvetica,sans-Serif" font-size="10.00"> &lt; IAspectPropertyMetaData &gt;</text>
</g>
<!-- Node7 -->
<g id="node4" class="node"><title>Node7</title>
<g id="a_node4"><a xlink:title=" ">
<polygon fill="none" stroke="#bfbfbf" points="27.5,-225.5 27.5,-255.5 152.5,-255.5 152.5,-225.5 27.5,-225.5"/>
<text text-anchor="start" x="35.5" y="-243.5" font-family="Helvetica,sans-Serif" font-size="10.00">CloudAspectEngineBase</text>
<text text-anchor="middle" x="90" y="-232.5" font-family="Helvetica,sans-Serif" font-size="10.00">&lt; IGeoData, TMeta &gt;</text>
</a>
</g>
</g>
<!-- Node7&#45;&gt;Node6 -->
<g id="edge3" class="edge"><title>Node7&#45;&gt;Node6</title>
<path fill="none" stroke="midnightblue" d="M90,-215.101C90,-206.098 90,-196.024 90,-187.51"/>
<polygon fill="midnightblue" stroke="midnightblue" points="86.5001,-215.374 90,-225.374 93.5001,-215.374 86.5001,-215.374"/>
</g>
</g>
</svg>
