<?xml version="1.0" encoding="UTF-8" standalone="no"?>
<!DOCTYPE svg PUBLIC "-//W3C//DTD SVG 1.1//EN"
 "http://www.w3.org/Graphics/SVG/1.1/DTD/svg11.dtd">
<!-- Generated by graphviz version 2.38.0 (20140413.2041)
 -->
<!-- Title: FiftyOne.GeoLocation.Core.Data.GeoData Pages: 1 -->
<svg width="180pt" height="151pt"
 viewBox="0.00 0.00 180.00 151.00" xmlns="http://www.w3.org/2000/svg" xmlns:xlink="http://www.w3.org/1999/xlink">
<g id="graph0" class="graph" transform="scale(1 1) rotate(0) translate(4 147)">
<title>FiftyOne.GeoLocation.Core.Data.GeoData</title>
<!-- Node0 -->
<g id="node1" class="node"><title>Node0</title>
<g id="a_node1"><a xlink:title=" ">
<polygon fill="#bfbfbf" stroke="black" points="22.5,-0.5 22.5,-30.5 159.5,-30.5 159.5,-0.5 22.5,-0.5"/>
<text text-anchor="start" x="30.5" y="-18.5" font-family="Helvetica,sans-Serif" font-size="10.00">FiftyOne.GeoLocation.Core.</text>
<text text-anchor="middle" x="91" y="-7.5" font-family="Helvetica,sans-Serif" font-size="10.00">Data.GeoData</text>
</a>
</g>
</g>
<!-- Node1 -->
<g id="node2" class="node"><title>Node1</title>
<g id="a_node2"><a xlink:title=" ">
<polygon fill="none" stroke="#bfbfbf" points="0,-67.5 0,-86.5 90,-86.5 90,-67.5 0,-67.5"/>
<text text-anchor="middle" x="45" y="-74.5" font-family="Helvetica,sans-Serif" font-size="10.00">AspectDataBase</text>
</a>
</g>
</g>
<!-- Node1&#45;&gt;Node0 -->
<g id="edge1" class="edge"><title>Node1&#45;&gt;Node0</title>
<path fill="none" stroke="midnightblue" d="M57.7334,-59.5296C64.7782,-50.4173 73.4399,-39.2136 80.1587,-30.523"/>
<polygon fill="midnightblue" stroke="midnightblue" points="54.9381,-57.423 51.5907,-67.4751 60.4761,-61.7044 54.9381,-57.423"/>
</g>
<!-- Node2 -->
<g id="node3" class="node"><title>Node2</title>
<g id="a_node3"><a xlink:href="interface_fifty_one_1_1_geo_location_1_1_core_1_1_data_1_1_i_geo_data.html" target="_top" xlink:title=" ">
<polygon fill="none" stroke="black" points="108.5,-67.5 108.5,-86.5 165.5,-86.5 165.5,-67.5 108.5,-67.5"/>
<text text-anchor="middle" x="137" y="-74.5" font-family="Helvetica,sans-Serif" font-size="10.00">IGeoData</text>
</a>
</g>
</g>
<!-- Node2&#45;&gt;Node0 -->
<g id="edge2" class="edge"><title>Node2&#45;&gt;Node0</title>
<path fill="none" stroke="midnightblue" d="M124.267,-59.5296C117.222,-50.4173 108.56,-39.2136 101.841,-30.523"/>
<polygon fill="midnightblue" stroke="midnightblue" points="121.524,-61.7044 130.409,-67.4751 127.062,-57.423 121.524,-61.7044"/>
</g>
<!-- Node3 -->
<g id="node4" class="node"><title>Node3</title>
<g id="a_node4"><a xlink:title=" ">
<polygon fill="none" stroke="#bfbfbf" points="102,-123.5 102,-142.5 172,-142.5 172,-123.5 102,-123.5"/>
<text text-anchor="middle" x="137" y="-130.5" font-family="Helvetica,sans-Serif" font-size="10.00">IAspectData</text>
</a>
</g>
</g>
<!-- Node3&#45;&gt;Node2 -->
<g id="edge3" class="edge"><title>Node3&#45;&gt;Node2</title>
<path fill="none" stroke="midnightblue" d="M137,-112.805C137,-103.91 137,-93.7798 137,-86.7511"/>
<polygon fill="midnightblue" stroke="midnightblue" points="133.5,-113.083 137,-123.083 140.5,-113.083 133.5,-113.083"/>
</g>
</g>
</svg>
