<?xml version="1.0" encoding="UTF-8" standalone="no"?>
<!DOCTYPE svg PUBLIC "-//W3C//DTD SVG 1.1//EN"
 "http://www.w3.org/Graphics/SVG/1.1/DTD/svg11.dtd">
<!-- Generated by graphviz version 2.38.0 (20140413.2041)
 -->
<!-- Title: FiftyOne.GeoLocation.DigitalElement.FlowElements.DigitalElementEngineBuilderBase&lt; TBuilder, TEngine &gt; Pages: 1 -->
<svg width="991pt" height="61pt"
 viewBox="0.00 0.00 991.00 61.00" xmlns="http://www.w3.org/2000/svg" xmlns:xlink="http://www.w3.org/1999/xlink">
<g id="graph0" class="graph" transform="scale(1 1) rotate(0) translate(4 57)">
<title>FiftyOne.GeoLocation.DigitalElement.FlowElements.DigitalElementEngineBuilderBase&lt; TBuilder, TEngine &gt;</title>
<!-- Node0 -->
<g id="node1" class="node"><title>Node0</title>
<g id="a_node1"><a xlink:title="Base fluent builder for the IDigitalElementEngine.">
<polygon fill="#bfbfbf" stroke="black" points="193,-6 193,-47 387,-47 387,-6 193,-6"/>
<text text-anchor="start" x="201" y="-35" font-family="Helvetica,sans-Serif" font-size="10.00">FiftyOne.GeoLocation.Digital</text>
<text text-anchor="start" x="201" y="-24" font-family="Helvetica,sans-Serif" font-size="10.00">Element.FlowElements.DigitalElement</text>
<text text-anchor="middle" x="290" y="-13" font-family="Helvetica,sans-Serif" font-size="10.00">EngineBuilderBase&lt; TBuilder, TEngine &gt;</text>
</a>
</g>
</g>
<!-- Node2 -->
<g id="node3" class="node"><title>Node2</title>
<g id="a_node3"><a xlink:href="class_fifty_one_1_1_geo_location_1_1_digital_element_1_1_flow_elements_1_1_digital_element_engine_builder_base.html" target="_top" xlink:title=" ">
<polygon fill="none" stroke="black" points="562,-0.5 562,-52.5 763,-52.5 763,-0.5 562,-0.5"/>
<text text-anchor="start" x="570" y="-40.5" font-family="Helvetica,sans-Serif" font-size="10.00">FiftyOne.GeoLocation.Digital</text>
<text text-anchor="start" x="570" y="-29.5" font-family="Helvetica,sans-Serif" font-size="10.00">Element.FlowElements.DigitalElement</text>
<text text-anchor="start" x="570" y="-18.5" font-family="Helvetica,sans-Serif" font-size="10.00">EngineBuilderBase&lt; DigitalElementEngine</text>
<text text-anchor="middle" x="662.5" y="-7.5" font-family="Helvetica,sans-Serif" font-size="10.00">Builder, DigitalElementEngine &gt;</text>
</a>
</g>
</g>
<!-- Node0&#45;&gt;Node2 -->
<g id="edge2" class="edge"><title>Node0&#45;&gt;Node2</title>
<path fill="none" stroke="orange" stroke-dasharray="5,2" d="M397.574,-26.5C449.257,-26.5 510.975,-26.5 561.729,-26.5"/>
<polygon fill="orange" stroke="orange" points="397.377,-23.0001 387.377,-26.5 397.377,-30.0001 397.377,-23.0001"/>
<text text-anchor="start" x="405" y="-40.5" font-family="Helvetica,sans-Serif" font-size="10.00"> &lt; DigitalElementEngineBuilder,</text>
<text text-anchor="middle" x="474.5" y="-29.5" font-family="Helvetica,sans-Serif" font-size="10.00"> DigitalElementEngine &gt;</text>
</g>
<!-- Node1 -->
<g id="node2" class="node"><title>Node1</title>
<g id="a_node2"><a xlink:title=" ">
<polygon fill="none" stroke="#bfbfbf" points="0,-11.5 0,-41.5 156,-41.5 156,-11.5 0,-11.5"/>
<text text-anchor="start" x="8" y="-29.5" font-family="Helvetica,sans-Serif" font-size="10.00">OnPremiseAspectEngineBuilder</text>
<text text-anchor="middle" x="78" y="-18.5" font-family="Helvetica,sans-Serif" font-size="10.00">Base&lt; TBuilder, TEngine &gt;</text>
</a>
</g>
</g>
<!-- Node1&#45;&gt;Node0 -->
<g id="edge1" class="edge"><title>Node1&#45;&gt;Node0</title>
<path fill="none" stroke="midnightblue" d="M166.187,-26.5C174.94,-26.5 183.864,-26.5 192.705,-26.5"/>
<polygon fill="midnightblue" stroke="midnightblue" points="166.004,-23.0001 156.004,-26.5 166.004,-30.0001 166.004,-23.0001"/>
</g>
<!-- Node3 -->
<g id="node4" class="node"><title>Node3</title>
<g id="a_node4"><a xlink:href="class_fifty_one_1_1_geo_location_1_1_digital_element_1_1_flow_elements_1_1_digital_element_engine_builder.html" target="_top" xlink:title="Fluent builder for the DigitalElementEngine.">
<polygon fill="none" stroke="black" points="800,-6 800,-47 983,-47 983,-6 800,-6"/>
<text text-anchor="start" x="808" y="-35" font-family="Helvetica,sans-Serif" font-size="10.00">FiftyOne.GeoLocation.Digital</text>
<text text-anchor="start" x="808" y="-24" font-family="Helvetica,sans-Serif" font-size="10.00">Element.FlowElements.DigitalElement</text>
<text text-anchor="middle" x="891.5" y="-13" font-family="Helvetica,sans-Serif" font-size="10.00">EngineBuilder</text>
</a>
</g>
</g>
<!-- Node2&#45;&gt;Node3 -->
<g id="edge3" class="edge"><title>Node2&#45;&gt;Node3</title>
<path fill="none" stroke="midnightblue" d="M773.168,-26.5C782.139,-26.5 791.141,-26.5 799.952,-26.5"/>
<polygon fill="midnightblue" stroke="midnightblue" points="773.066,-23.0001 763.066,-26.5 773.065,-30.0001 773.066,-23.0001"/>
</g>
</g>
</svg>
