<?xml version="1.0" encoding="UTF-8" standalone="no"?>
<!DOCTYPE svg PUBLIC "-//W3C//DTD SVG 1.1//EN"
 "http://www.w3.org/Graphics/SVG/1.1/DTD/svg11.dtd">
<!-- Generated by graphviz version 2.38.0 (20140413.2041)
 -->
<!-- Title: FiftyOne.GeoLocation.Nominatim.FlowElements.NominatimEngineBase&lt; TMeta &gt; Pages: 1 -->
<svg width="900pt" height="50pt"
 viewBox="0.00 0.00 900.00 50.00" xmlns="http://www.w3.org/2000/svg" xmlns:xlink="http://www.w3.org/1999/xlink">
<g id="graph0" class="graph" transform="scale(1 1) rotate(0) translate(4 46)">
<title>FiftyOne.GeoLocation.Nominatim.FlowElements.NominatimEngineBase&lt; TMeta &gt;</title>
<!-- Node0 -->
<g id="node1" class="node"><title>Node0</title>
<g id="a_node1"><a xlink:title=" ">
<polygon fill="#bfbfbf" stroke="black" points="162,-0.5 162,-41.5 342,-41.5 342,-0.5 162,-0.5"/>
<text text-anchor="start" x="170" y="-29.5" font-family="Helvetica,sans-Serif" font-size="10.00">FiftyOne.GeoLocation.Nominatim.</text>
<text text-anchor="start" x="170" y="-18.5" font-family="Helvetica,sans-Serif" font-size="10.00">FlowElements.NominatimEngineBase</text>
<text text-anchor="middle" x="252" y="-7.5" font-family="Helvetica,sans-Serif" font-size="10.00">&lt; TMeta &gt;</text>
</a>
</g>
</g>
<!-- Node2 -->
<g id="node3" class="node"><title>Node2</title>
<g id="a_node3"><a xlink:href="class_fifty_one_1_1_geo_location_1_1_nominatim_1_1_flow_elements_1_1_nominatim_engine_base.html" target="_top" xlink:title=" ">
<polygon fill="none" stroke="black" points="511,-0.5 511,-41.5 691,-41.5 691,-0.5 511,-0.5"/>
<text text-anchor="start" x="519" y="-29.5" font-family="Helvetica,sans-Serif" font-size="10.00">FiftyOne.GeoLocation.Nominatim.</text>
<text text-anchor="start" x="519" y="-18.5" font-family="Helvetica,sans-Serif" font-size="10.00">FlowElements.NominatimEngineBase</text>
<text text-anchor="middle" x="601" y="-7.5" font-family="Helvetica,sans-Serif" font-size="10.00">&lt; IAspectPropertyMetaData &gt;</text>
</a>
</g>
</g>
<!-- Node0&#45;&gt;Node2 -->
<g id="edge2" class="edge"><title>Node0&#45;&gt;Node2</title>
<path fill="none" stroke="orange" stroke-dasharray="5,2" d="M352.536,-21C402.495,-21 462.521,-21 510.942,-21"/>
<polygon fill="orange" stroke="orange" points="352.361,-17.5001 342.361,-21 352.361,-24.5001 352.361,-17.5001"/>
<text text-anchor="middle" x="426.5" y="-24" font-family="Helvetica,sans-Serif" font-size="10.00"> &lt; IAspectPropertyMetaData &gt;</text>
</g>
<!-- Node1 -->
<g id="node2" class="node"><title>Node1</title>
<g id="a_node2"><a xlink:title=" ">
<polygon fill="none" stroke="#bfbfbf" points="0,-6 0,-36 125,-36 125,-6 0,-6"/>
<text text-anchor="start" x="8" y="-24" font-family="Helvetica,sans-Serif" font-size="10.00">CloudAspectEngineBase</text>
<text text-anchor="middle" x="62.5" y="-13" font-family="Helvetica,sans-Serif" font-size="10.00">&lt; IGeoData, TMeta &gt;</text>
</a>
</g>
</g>
<!-- Node1&#45;&gt;Node0 -->
<g id="edge1" class="edge"><title>Node1&#45;&gt;Node0</title>
<path fill="none" stroke="midnightblue" d="M135.223,-21C143.921,-21 152.887,-21 161.799,-21"/>
<polygon fill="midnightblue" stroke="midnightblue" points="135.154,-17.5001 125.154,-21 135.154,-24.5001 135.154,-17.5001"/>
</g>
<!-- Node3 -->
<g id="node4" class="node"><title>Node3</title>
<g id="a_node4"><a xlink:href="class_fifty_one_1_1_geo_location_1_1_nominatim_1_1_flow_elements_1_1_nominatim_engine.html" target="_top" xlink:title=" ">
<polygon fill="none" stroke="black" points="728,-6 728,-36 892,-36 892,-6 728,-6"/>
<text text-anchor="start" x="736" y="-24" font-family="Helvetica,sans-Serif" font-size="10.00">FiftyOne.GeoLocation.Nominatim.</text>
<text text-anchor="middle" x="810" y="-13" font-family="Helvetica,sans-Serif" font-size="10.00">FlowElements.NominatimEngine</text>
</a>
</g>
</g>
<!-- Node2&#45;&gt;Node3 -->
<g id="edge3" class="edge"><title>Node2&#45;&gt;Node3</title>
<path fill="none" stroke="midnightblue" d="M701.298,-21C710.191,-21 719.126,-21 727.838,-21"/>
<polygon fill="midnightblue" stroke="midnightblue" points="701.289,-17.5001 691.289,-21 701.289,-24.5001 701.289,-17.5001"/>
</g>
</g>
</svg>
