<?xml version="1.0" encoding="UTF-8" standalone="no"?>
<!DOCTYPE svg PUBLIC "-//W3C//DTD SVG 1.1//EN"
 "http://www.w3.org/Graphics/SVG/1.1/DTD/svg11.dtd">
<!-- Generated by graphviz version 2.38.0 (20140413.2041)
 -->
<!-- Title: FiftyOne.GeoLocation.DigitalElement.FlowElements.DigitalElementEngineBase&lt; TMeta &gt; Pages: 1 -->
<svg width="296pt" height="173pt"
 viewBox="0.00 0.00 295.50 173.00" xmlns="http://www.w3.org/2000/svg" xmlns:xlink="http://www.w3.org/1999/xlink">
<g id="graph0" class="graph" transform="scale(1 1) rotate(0) translate(4 169)">
<title>FiftyOne.GeoLocation.DigitalElement.FlowElements.DigitalElementEngineBase&lt; TMeta &gt;</title>
<!-- Node6 -->
<g id="node1" class="node"><title>Node6</title>
<g id="a_node1"><a xlink:title="The DigitalElementEngineBase is used to share functionality of the DigitalElementEngine between Cloud...">
<polygon fill="#bfbfbf" stroke="black" points="57,-0.5 57,-41.5 240,-41.5 240,-0.5 57,-0.5"/>
<text text-anchor="start" x="65" y="-29.5" font-family="Helvetica,sans-Serif" font-size="10.00">FiftyOne.GeoLocation.Digital</text>
<text text-anchor="start" x="65" y="-18.5" font-family="Helvetica,sans-Serif" font-size="10.00">Element.FlowElements.DigitalElement</text>
<text text-anchor="middle" x="148.5" y="-7.5" font-family="Helvetica,sans-Serif" font-size="10.00">EngineBase&lt; TMeta &gt;</text>
</a>
</g>
</g>
<!-- Node7 -->
<g id="node2" class="node"><title>Node7</title>
<g id="a_node2"><a xlink:title=" ">
<polygon fill="none" stroke="#bfbfbf" points="0,-78.5 0,-108.5 149,-108.5 149,-78.5 0,-78.5"/>
<text text-anchor="start" x="8" y="-96.5" font-family="Helvetica,sans-Serif" font-size="10.00">OnPremiseAspectEngineBase</text>
<text text-anchor="middle" x="74.5" y="-85.5" font-family="Helvetica,sans-Serif" font-size="10.00">&lt; IGeoData, TMeta &gt;</text>
</a>
</g>
</g>
<!-- Node7&#45;&gt;Node6 -->
<g id="edge1" class="edge"><title>Node7&#45;&gt;Node6</title>
<path fill="none" stroke="midnightblue" d="M96.9617,-71.1007C106.818,-61.7107 118.311,-50.7615 127.939,-41.5884"/>
<polygon fill="midnightblue" stroke="midnightblue" points="94.301,-68.8014 89.475,-78.2333 99.1295,-73.8696 94.301,-68.8014"/>
</g>
<!-- Node8 -->
<g id="node3" class="node"><title>Node8</title>
<g id="a_node3"><a xlink:href="interface_fifty_one_1_1_geo_location_1_1_digital_element_1_1_flow_elements_1_1_i_digital_element_engine.html" target="_top" xlink:title="IDigitalElementEngine takes evidence in the form of latitude and longitude to produce reverse geoloca...">
<polygon fill="none" stroke="black" points="167.5,-84 167.5,-103 279.5,-103 279.5,-84 167.5,-84"/>
<text text-anchor="middle" x="223.5" y="-91" font-family="Helvetica,sans-Serif" font-size="10.00">IDigitalElementEngine</text>
</a>
</g>
</g>
<!-- Node8&#45;&gt;Node6 -->
<g id="edge2" class="edge"><title>Node8&#45;&gt;Node6</title>
<path fill="none" stroke="midnightblue" d="M206.979,-76.97C195.924,-66.5786 181.283,-52.8162 169.417,-41.6616"/>
<polygon fill="midnightblue" stroke="midnightblue" points="204.62,-79.5564 214.304,-83.8553 209.414,-74.456 204.62,-79.5564"/>
</g>
<!-- Node9 -->
<g id="node4" class="node"><title>Node9</title>
<g id="a_node4"><a xlink:title=" ">
<polygon fill="none" stroke="#bfbfbf" points="159.5,-145.5 159.5,-164.5 287.5,-164.5 287.5,-145.5 159.5,-145.5"/>
<text text-anchor="middle" x="223.5" y="-152.5" font-family="Helvetica,sans-Serif" font-size="10.00">IOnPremiseAspectEngine</text>
</a>
</g>
</g>
<!-- Node9&#45;&gt;Node8 -->
<g id="edge3" class="edge"><title>Node9&#45;&gt;Node8</title>
<path fill="none" stroke="midnightblue" d="M223.5,-135.317C223.5,-124.496 223.5,-111.398 223.5,-103.009"/>
<polygon fill="midnightblue" stroke="midnightblue" points="220,-135.475 223.5,-145.475 227,-135.475 220,-135.475"/>
</g>
</g>
</svg>
