<?xml version="1.0" encoding="UTF-8" standalone="no"?>
<!DOCTYPE svg PUBLIC "-//W3C//DTD SVG 1.1//EN"
 "http://www.w3.org/Graphics/SVG/1.1/DTD/svg11.dtd">
<!-- Generated by graphviz version 2.38.0 (20140413.2041)
 -->
<!-- Title: Graphical Class Hierarchy Pages: 1 -->
<svg width="576pt" height="88pt"
 viewBox="0.00 0.00 576.00 88.00" xmlns="http://www.w3.org/2000/svg" xmlns:xlink="http://www.w3.org/1999/xlink">
<g id="graph0" class="graph" transform="scale(1 1) rotate(0) translate(4 84)">
<title>Graphical Class Hierarchy</title>
<!-- Node22 -->
<g id="node1" class="node"><title>Node22</title>
<g id="a_node1"><a xlink:title=" ">
<polygon fill="none" stroke="#bfbfbf" points="0,-49.5 0,-68.5 128,-68.5 128,-49.5 0,-49.5"/>
<text text-anchor="middle" x="64" y="-56.5" font-family="Helvetica,sans-Serif" font-size="10.00">IOnPremiseAspectEngine</text>
</a>
</g>
</g>
<!-- Node23 -->
<g id="node2" class="node"><title>Node23</title>
<g id="a_node2"><a xlink:href="interface_fifty_one_1_1_geo_location_1_1_digital_element_1_1_flow_elements_1_1_i_digital_element_engine.html" target="_top" xlink:title="IDigitalElementEngine takes evidence in the form of latitude and longitude to produce reverse geoloca...">
<polygon fill="none" stroke="black" points="164,-38.5 164,-79.5 349,-79.5 349,-38.5 164,-38.5"/>
<text text-anchor="start" x="172" y="-67.5" font-family="Helvetica,sans-Serif" font-size="10.00">FiftyOne.GeoLocation.Digital</text>
<text text-anchor="start" x="172" y="-56.5" font-family="Helvetica,sans-Serif" font-size="10.00">Element.FlowElements.IDigitalElement</text>
<text text-anchor="middle" x="256.5" y="-45.5" font-family="Helvetica,sans-Serif" font-size="10.00">Engine</text>
</a>
</g>
</g>
<!-- Node22&#45;&gt;Node23 -->
<g id="edge1" class="edge"><title>Node22&#45;&gt;Node23</title>
<path fill="none" stroke="midnightblue" d="M138.282,-59C146.687,-59 155.333,-59 163.939,-59"/>
<polygon fill="midnightblue" stroke="midnightblue" points="138.169,-55.5001 128.169,-59 138.169,-62.5001 138.169,-55.5001"/>
</g>
<!-- Node0 -->
<g id="node3" class="node"><title>Node0</title>
<g id="a_node3"><a xlink:href="class_fifty_one_1_1_geo_location_1_1_digital_element_1_1_flow_elements_1_1_digital_element_engine_base.html" target="_top" xlink:title="The DigitalElementEngineBase is used to share functionality of the DigitalElementEngine between Cloud...">
<polygon fill="none" stroke="black" points="385,-13.5 385,-54.5 568,-54.5 568,-13.5 385,-13.5"/>
<text text-anchor="start" x="393" y="-42.5" font-family="Helvetica,sans-Serif" font-size="10.00">FiftyOne.GeoLocation.Digital</text>
<text text-anchor="start" x="393" y="-31.5" font-family="Helvetica,sans-Serif" font-size="10.00">Element.FlowElements.DigitalElement</text>
<text text-anchor="middle" x="476.5" y="-20.5" font-family="Helvetica,sans-Serif" font-size="10.00">EngineBase&lt; TMeta &gt;</text>
</a>
</g>
</g>
<!-- Node23&#45;&gt;Node0 -->
<g id="edge2" class="edge"><title>Node23&#45;&gt;Node0</title>
<path fill="none" stroke="midnightblue" d="M359.087,-47.3502C367.711,-46.3611 376.397,-45.365 384.929,-44.3866"/>
<polygon fill="midnightblue" stroke="midnightblue" points="358.54,-43.8898 349.004,-48.5064 359.338,-50.8442 358.54,-43.8898"/>
</g>
<!-- Node12 -->
<g id="node4" class="node"><title>Node12</title>
<g id="a_node4"><a xlink:title=" ">
<polygon fill="none" stroke="#bfbfbf" points="182,-0.5 182,-19.5 331,-19.5 331,-0.5 182,-0.5"/>
<text text-anchor="middle" x="256.5" y="-7.5" font-family="Helvetica,sans-Serif" font-size="10.00">OnPremiseAspectEngineBase</text>
</a>
</g>
</g>
<!-- Node12&#45;&gt;Node0 -->
<g id="edge3" class="edge"><title>Node12&#45;&gt;Node0</title>
<path fill="none" stroke="midnightblue" d="M341.279,-19.2234C355.563,-20.796 370.459,-22.4359 384.91,-24.0268"/>
<polygon fill="midnightblue" stroke="midnightblue" points="341.324,-15.7073 331.001,-18.0918 340.558,-22.6652 341.324,-15.7073"/>
</g>
</g>
</svg>
