<?xml version="1.0" encoding="UTF-8" standalone="no"?>
<!DOCTYPE svg PUBLIC "-//W3C//DTD SVG 1.1//EN"
 "http://www.w3.org/Graphics/SVG/1.1/DTD/svg11.dtd">
<!-- Generated by graphviz version 2.38.0 (20140413.2041)
 -->
<!-- Title: Graphical Class Hierarchy Pages: 1 -->
<svg width="409pt" height="186pt"
 viewBox="0.00 0.00 409.00 186.00" xmlns="http://www.w3.org/2000/svg" xmlns:xlink="http://www.w3.org/1999/xlink">
<g id="graph0" class="graph" transform="scale(1 1) rotate(0) translate(4 182)">
<title>Graphical Class Hierarchy</title>
<!-- Node0 -->
<g id="node1" class="node"><title>Node0</title>
<g id="a_node1"><a xlink:href="class_fifty_one_1_1_geo_location_1_1_digital_element_1_1_data_1_1_models_1_1_decode_1_1_decode_file_object_base.html" target="_top" xlink:title="Base class for data objects that are populated from Digital Element decode files.">
<polygon fill="none" stroke="black" points="0,-68 0,-109 182,-109 182,-68 0,-68"/>
<text text-anchor="start" x="8" y="-97" font-family="Helvetica,sans-Serif" font-size="10.00">FiftyOne.GeoLocation.Digital</text>
<text text-anchor="start" x="8" y="-86" font-family="Helvetica,sans-Serif" font-size="10.00">Element.Data.Models.Decode.Decode</text>
<text text-anchor="middle" x="91" y="-75" font-family="Helvetica,sans-Serif" font-size="10.00">FileObjectBase</text>
</a>
</g>
</g>
<!-- Node1 -->
<g id="node2" class="node"><title>Node1</title>
<g id="a_node2"><a xlink:href="class_fifty_one_1_1_geo_location_1_1_digital_element_1_1_data_1_1_models_1_1_decode_1_1_city.html" target="_top" xlink:title=" ">
<polygon fill="none" stroke="black" points="226,-147.5 226,-177.5 393,-177.5 393,-147.5 226,-147.5"/>
<text text-anchor="start" x="234" y="-165.5" font-family="Helvetica,sans-Serif" font-size="10.00">FiftyOne.GeoLocation.Digital</text>
<text text-anchor="middle" x="309.5" y="-154.5" font-family="Helvetica,sans-Serif" font-size="10.00">Element.Data.Models.Decode.City</text>
</a>
</g>
</g>
<!-- Node0&#45;&gt;Node1 -->
<g id="edge1" class="edge"><title>Node0&#45;&gt;Node1</title>
<path fill="none" stroke="midnightblue" d="M149.233,-112.873C170.608,-121.534 195.221,-130.989 218,-138.5 227.571,-141.656 237.815,-144.691 247.843,-147.478"/>
<polygon fill="midnightblue" stroke="midnightblue" points="150.553,-109.631 139.972,-109.089 147.906,-116.111 150.553,-109.631"/>
</g>
<!-- Node2 -->
<g id="node3" class="node"><title>Node2</title>
<g id="a_node3"><a xlink:href="class_fifty_one_1_1_geo_location_1_1_digital_element_1_1_data_1_1_models_1_1_decode_1_1_country.html" target="_top" xlink:title=" ">
<polygon fill="none" stroke="black" points="218,-98.5 218,-128.5 401,-128.5 401,-98.5 218,-98.5"/>
<text text-anchor="start" x="226" y="-116.5" font-family="Helvetica,sans-Serif" font-size="10.00">FiftyOne.GeoLocation.Digital</text>
<text text-anchor="middle" x="309.5" y="-105.5" font-family="Helvetica,sans-Serif" font-size="10.00">Element.Data.Models.Decode.Country</text>
</a>
</g>
</g>
<!-- Node0&#45;&gt;Node2 -->
<g id="edge2" class="edge"><title>Node0&#45;&gt;Node2</title>
<path fill="none" stroke="midnightblue" d="M192.191,-100.069C200.699,-101.052 209.273,-102.042 217.702,-103.015"/>
<polygon fill="midnightblue" stroke="midnightblue" points="192.583,-96.5915 182.248,-98.9212 191.78,-103.545 192.583,-96.5915"/>
</g>
<!-- Node3 -->
<g id="node4" class="node"><title>Node3</title>
<g id="a_node4"><a xlink:href="class_fifty_one_1_1_geo_location_1_1_digital_element_1_1_data_1_1_models_1_1_decode_1_1_metro.html" target="_top" xlink:title=" ">
<polygon fill="none" stroke="black" points="222.5,-49.5 222.5,-79.5 396.5,-79.5 396.5,-49.5 222.5,-49.5"/>
<text text-anchor="start" x="230.5" y="-67.5" font-family="Helvetica,sans-Serif" font-size="10.00">FiftyOne.GeoLocation.Digital</text>
<text text-anchor="middle" x="309.5" y="-56.5" font-family="Helvetica,sans-Serif" font-size="10.00">Element.Data.Models.Decode.Metro</text>
</a>
</g>
</g>
<!-- Node0&#45;&gt;Node3 -->
<g id="edge3" class="edge"><title>Node0&#45;&gt;Node3</title>
<path fill="none" stroke="midnightblue" d="M192.224,-77.3897C202.244,-76.2789 212.357,-75.1579 222.215,-74.065"/>
<polygon fill="midnightblue" stroke="midnightblue" points="191.801,-73.9151 182.248,-78.4956 192.573,-80.8724 191.801,-73.9151"/>
</g>
<!-- Node4 -->
<g id="node5" class="node"><title>Node4</title>
<g id="a_node5"><a xlink:href="class_fifty_one_1_1_geo_location_1_1_digital_element_1_1_data_1_1_models_1_1_decode_1_1_region.html" target="_top" xlink:title=" ">
<polygon fill="none" stroke="black" points="220,-0.5 220,-30.5 399,-30.5 399,-0.5 220,-0.5"/>
<text text-anchor="start" x="228" y="-18.5" font-family="Helvetica,sans-Serif" font-size="10.00">FiftyOne.GeoLocation.Digital</text>
<text text-anchor="middle" x="309.5" y="-7.5" font-family="Helvetica,sans-Serif" font-size="10.00">Element.Data.Models.Decode.Region</text>
</a>
</g>
</g>
<!-- Node0&#45;&gt;Node4 -->
<g id="edge4" class="edge"><title>Node0&#45;&gt;Node4</title>
<path fill="none" stroke="midnightblue" d="M152.393,-64.1659C173.051,-56.1979 196.397,-47.5812 218,-40.5 228.533,-37.0475 239.855,-33.6652 250.805,-30.5595"/>
<polygon fill="midnightblue" stroke="midnightblue" points="150.852,-61.0098 142.798,-67.8941 153.387,-67.5346 150.852,-61.0098"/>
</g>
</g>
</svg>
