<?xml version="1.0" encoding="UTF-8" standalone="no"?>
<!DOCTYPE svg PUBLIC "-//W3C//DTD SVG 1.1//EN"
 "http://www.w3.org/Graphics/SVG/1.1/DTD/svg11.dtd">
<!-- Generated by graphviz version 2.38.0 (20140413.2041)
 -->
<!-- Title: Graphical Class Hierarchy Pages: 1 -->
<svg width="424pt" height="78pt"
 viewBox="0.00 0.00 424.00 77.50" xmlns="http://www.w3.org/2000/svg" xmlns:xlink="http://www.w3.org/1999/xlink">
<g id="graph0" class="graph" transform="scale(1 1) rotate(0) translate(4 73.5)">
<title>Graphical Class Hierarchy</title>
<!-- Node57 -->
<g id="node1" class="node"><title>Node57</title>
<g id="a_node1"><a xlink:title=" ">
<polygon fill="none" stroke="#bfbfbf" points="129.5,-50 129.5,-69 219.5,-69 219.5,-50 129.5,-50"/>
<text text-anchor="middle" x="174.5" y="-57" font-family="Helvetica,sans-Serif" font-size="10.00">AspectDataBase</text>
</a>
</g>
</g>
<!-- Node1 -->
<g id="node2" class="node"><title>Node1</title>
<g id="a_node2"><a xlink:href="class_fifty_one_1_1_geo_location_1_1_core_1_1_data_1_1_geo_data.html" target="_top" xlink:title=" ">
<polygon fill="none" stroke="black" points="279,-22.5 279,-52.5 416,-52.5 416,-22.5 279,-22.5"/>
<text text-anchor="start" x="287" y="-40.5" font-family="Helvetica,sans-Serif" font-size="10.00">FiftyOne.GeoLocation.Core.</text>
<text text-anchor="middle" x="347.5" y="-29.5" font-family="Helvetica,sans-Serif" font-size="10.00">Data.GeoData</text>
</a>
</g>
</g>
<!-- Node57&#45;&gt;Node1 -->
<g id="edge1" class="edge"><title>Node57&#45;&gt;Node1</title>
<path fill="none" stroke="midnightblue" d="M229.533,-52.5484C245.14,-50.5405 262.373,-48.3233 278.705,-46.2221"/>
<polygon fill="midnightblue" stroke="midnightblue" points="229.008,-49.0869 219.537,-53.8345 229.902,-56.0297 229.008,-49.0869"/>
</g>
<!-- Node25 -->
<g id="node3" class="node"><title>Node25</title>
<g id="a_node3"><a xlink:title=" ">
<polygon fill="none" stroke="#bfbfbf" points="0,-6 0,-25 70,-25 70,-6 0,-6"/>
<text text-anchor="middle" x="35" y="-13" font-family="Helvetica,sans-Serif" font-size="10.00">IAspectData</text>
</a>
</g>
</g>
<!-- Node0 -->
<g id="node4" class="node"><title>Node0</title>
<g id="a_node4"><a xlink:href="interface_fifty_one_1_1_geo_location_1_1_core_1_1_data_1_1_i_geo_data.html" target="_top" xlink:title=" ">
<polygon fill="none" stroke="black" points="106,-0.5 106,-30.5 243,-30.5 243,-0.5 106,-0.5"/>
<text text-anchor="start" x="114" y="-18.5" font-family="Helvetica,sans-Serif" font-size="10.00">FiftyOne.GeoLocation.Core.</text>
<text text-anchor="middle" x="174.5" y="-7.5" font-family="Helvetica,sans-Serif" font-size="10.00">Data.IGeoData</text>
</a>
</g>
</g>
<!-- Node25&#45;&gt;Node0 -->
<g id="edge2" class="edge"><title>Node25&#45;&gt;Node0</title>
<path fill="none" stroke="midnightblue" d="M80.6126,-15.5C88.6815,-15.5 97.2586,-15.5 105.814,-15.5"/>
<polygon fill="midnightblue" stroke="midnightblue" points="80.3424,-12.0001 70.3424,-15.5 80.3423,-19.0001 80.3424,-12.0001"/>
</g>
<!-- Node0&#45;&gt;Node1 -->
<g id="edge3" class="edge"><title>Node0&#45;&gt;Node1</title>
<path fill="none" stroke="midnightblue" d="M253.1,-25.4836C261.692,-26.589 270.391,-27.7083 278.847,-28.7961"/>
<polygon fill="midnightblue" stroke="midnightblue" points="253.449,-21.9997 243.084,-24.195 252.555,-28.9425 253.449,-21.9997"/>
</g>
</g>
</svg>
