<?xml version="1.0" encoding="UTF-8" standalone="no"?>
<!DOCTYPE svg PUBLIC "-//W3C//DTD SVG 1.1//EN"
 "http://www.w3.org/Graphics/SVG/1.1/DTD/svg11.dtd">
<!-- Generated by graphviz version 2.38.0 (20140413.2041)
 -->
<!-- Title: FiftyOne.GeoLocation.DigitalElement.FlowElements.IDigitalElementEngine Pages: 1 -->
<svg width="1166pt" height="50pt"
 viewBox="0.00 0.00 1166.00 50.00" xmlns="http://www.w3.org/2000/svg" xmlns:xlink="http://www.w3.org/1999/xlink">
<g id="graph0" class="graph" transform="scale(1 1) rotate(0) translate(4 46)">
<title>FiftyOne.GeoLocation.DigitalElement.FlowElements.IDigitalElementEngine</title>
<!-- Node0 -->
<g id="node1" class="node"><title>Node0</title>
<g id="a_node1"><a xlink:title="IDigitalElementEngine takes evidence in the form of latitude and longitude to produce reverse geoloca...">
<polygon fill="#bfbfbf" stroke="black" points="165,-0.5 165,-41.5 350,-41.5 350,-0.5 165,-0.5"/>
<text text-anchor="start" x="173" y="-29.5" font-family="Helvetica,sans-Serif" font-size="10.00">FiftyOne.GeoLocation.Digital</text>
<text text-anchor="start" x="173" y="-18.5" font-family="Helvetica,sans-Serif" font-size="10.00">Element.FlowElements.IDigitalElement</text>
<text text-anchor="middle" x="257.5" y="-7.5" font-family="Helvetica,sans-Serif" font-size="10.00">Engine</text>
</a>
</g>
</g>
<!-- Node2 -->
<g id="node3" class="node"><title>Node2</title>
<g id="a_node3"><a xlink:href="class_fifty_one_1_1_geo_location_1_1_digital_element_1_1_flow_elements_1_1_digital_element_engine_base.html" target="_top" xlink:title="The DigitalElementEngineBase is used to share functionality of the DigitalElementEngine between Cloud...">
<polygon fill="none" stroke="black" points="387,-0.5 387,-41.5 570,-41.5 570,-0.5 387,-0.5"/>
<text text-anchor="start" x="395" y="-29.5" font-family="Helvetica,sans-Serif" font-size="10.00">FiftyOne.GeoLocation.Digital</text>
<text text-anchor="start" x="395" y="-18.5" font-family="Helvetica,sans-Serif" font-size="10.00">Element.FlowElements.DigitalElement</text>
<text text-anchor="middle" x="478.5" y="-7.5" font-family="Helvetica,sans-Serif" font-size="10.00">EngineBase&lt; TMeta &gt;</text>
</a>
</g>
</g>
<!-- Node0&#45;&gt;Node2 -->
<g id="edge2" class="edge"><title>Node0&#45;&gt;Node2</title>
<path fill="none" stroke="midnightblue" d="M360.162,-21C369.105,-21 378.119,-21 386.962,-21"/>
<polygon fill="midnightblue" stroke="midnightblue" points="360.107,-17.5001 350.107,-21 360.107,-24.5001 360.107,-17.5001"/>
</g>
<!-- Node1 -->
<g id="node2" class="node"><title>Node1</title>
<g id="a_node2"><a xlink:title=" ">
<polygon fill="none" stroke="#bfbfbf" points="0,-11.5 0,-30.5 128,-30.5 128,-11.5 0,-11.5"/>
<text text-anchor="middle" x="64" y="-18.5" font-family="Helvetica,sans-Serif" font-size="10.00">IOnPremiseAspectEngine</text>
</a>
</g>
</g>
<!-- Node1&#45;&gt;Node0 -->
<g id="edge1" class="edge"><title>Node1&#45;&gt;Node0</title>
<path fill="none" stroke="midnightblue" d="M138.32,-21C147.03,-21 156.002,-21 164.926,-21"/>
<polygon fill="midnightblue" stroke="midnightblue" points="138.235,-17.5001 128.235,-21 138.235,-24.5001 138.235,-17.5001"/>
</g>
<!-- Node3 -->
<g id="node4" class="node"><title>Node3</title>
<g id="a_node4"><a xlink:href="class_fifty_one_1_1_geo_location_1_1_digital_element_1_1_flow_elements_1_1_digital_element_engine_base.html" target="_top" xlink:title=" ">
<polygon fill="none" stroke="black" points="739,-0.5 739,-41.5 938,-41.5 938,-0.5 739,-0.5"/>
<text text-anchor="start" x="747" y="-29.5" font-family="Helvetica,sans-Serif" font-size="10.00">FiftyOne.GeoLocation.Digital</text>
<text text-anchor="start" x="747" y="-18.5" font-family="Helvetica,sans-Serif" font-size="10.00">Element.FlowElements.DigitalElement</text>
<text text-anchor="middle" x="838.5" y="-7.5" font-family="Helvetica,sans-Serif" font-size="10.00">EngineBase&lt; IAspectPropertyMetaData &gt;</text>
</a>
</g>
</g>
<!-- Node2&#45;&gt;Node3 -->
<g id="edge3" class="edge"><title>Node2&#45;&gt;Node3</title>
<path fill="none" stroke="orange" stroke-dasharray="5,2" d="M580.41,-21C630.038,-21 689.626,-21 738.934,-21"/>
<polygon fill="orange" stroke="orange" points="580.301,-17.5001 570.301,-21 580.301,-24.5001 580.301,-17.5001"/>
<text text-anchor="middle" x="654.5" y="-24" font-family="Helvetica,sans-Serif" font-size="10.00"> &lt; IAspectPropertyMetaData &gt;</text>
</g>
<!-- Node4 -->
<g id="node5" class="node"><title>Node4</title>
<g id="a_node5"><a xlink:href="class_fifty_one_1_1_geo_location_1_1_digital_element_1_1_flow_elements_1_1_digital_element_engine.html" target="_top" xlink:title="The DigitalElementEngine is used to retrieve postal address details based on supplied latitude and lo...">
<polygon fill="none" stroke="black" points="975,-0.5 975,-41.5 1158,-41.5 1158,-0.5 975,-0.5"/>
<text text-anchor="start" x="983" y="-29.5" font-family="Helvetica,sans-Serif" font-size="10.00">FiftyOne.GeoLocation.Digital</text>
<text text-anchor="start" x="983" y="-18.5" font-family="Helvetica,sans-Serif" font-size="10.00">Element.FlowElements.DigitalElement</text>
<text text-anchor="middle" x="1066.5" y="-7.5" font-family="Helvetica,sans-Serif" font-size="10.00">Engine</text>
</a>
</g>
</g>
<!-- Node3&#45;&gt;Node4 -->
<g id="edge4" class="edge"><title>Node3&#45;&gt;Node4</title>
<path fill="none" stroke="midnightblue" d="M948.56,-21C957.325,-21 966.121,-21 974.738,-21"/>
<polygon fill="midnightblue" stroke="midnightblue" points="948.298,-17.5001 938.298,-21 948.298,-24.5001 948.298,-17.5001"/>
</g>
</g>
</svg>
