<?xml version="1.0" encoding="UTF-8" standalone="no"?>
<!DOCTYPE svg PUBLIC "-//W3C//DTD SVG 1.1//EN"
 "http://www.w3.org/Graphics/SVG/1.1/DTD/svg11.dtd">
<!-- Generated by graphviz version 2.43.0 (0)
 -->
<!-- Title: FiftyOne.GeoLocation.Core.Data.GeoData Pages: 1 -->
<svg width="193pt" height="218pt"
 viewBox="0.00 0.00 192.50 218.00" xmlns="http://www.w3.org/2000/svg" xmlns:xlink="http://www.w3.org/1999/xlink">
<g id="graph0" class="graph" transform="scale(1 1) rotate(0) translate(4 214)">
<title>FiftyOne.GeoLocation.Core.Data.GeoData</title>
<!-- Node0 -->
<g id="node1" class="node">
<title>Node0</title>
<g id="a_node1"><a xlink:title="Data class that contains postal address information">
<polygon fill="#bfbfbf" stroke="black" points="23,-67.5 23,-97.5 172,-97.5 172,-67.5 23,-67.5"/>
<text text-anchor="start" x="31" y="-85.5" font-family="Helvetica,sans-Serif" font-size="10.00">FiftyOne.GeoLocation.Core.</text>
<text text-anchor="middle" x="97.5" y="-74.5" font-family="Helvetica,sans-Serif" font-size="10.00">Data.GeoData</text>
</a>
</g>
</g>
<!-- Node4 -->
<g id="node5" class="node">
<title>Node4</title>
<g id="a_node5"><a xlink:href="class_fifty_one_1_1_geo_location_1_1_cloud_1_1_data_1_1_geo_data_cloud.html" target="_top" xlink:title=" ">
<polygon fill="none" stroke="black" points="20,-0.5 20,-30.5 175,-30.5 175,-0.5 20,-0.5"/>
<text text-anchor="start" x="28" y="-18.5" font-family="Helvetica,sans-Serif" font-size="10.00">FiftyOne.GeoLocation.Cloud.</text>
<text text-anchor="middle" x="97.5" y="-7.5" font-family="Helvetica,sans-Serif" font-size="10.00">Data.GeoDataCloud</text>
</a>
</g>
</g>
<!-- Node0&#45;&gt;Node4 -->
<g id="edge4" class="edge">
<title>Node0&#45;&gt;Node4</title>
<path fill="none" stroke="midnightblue" d="M97.5,-57.11C97.5,-48.15 97.5,-38.32 97.5,-30.58"/>
<polygon fill="midnightblue" stroke="midnightblue" points="94,-57.4 97.5,-67.4 101,-57.4 94,-57.4"/>
</g>
<!-- Node1 -->
<g id="node2" class="node">
<title>Node1</title>
<g id="a_node2"><a xlink:title=" ">
<polygon fill="none" stroke="#bfbfbf" points="0,-134.5 0,-153.5 97,-153.5 97,-134.5 0,-134.5"/>
<text text-anchor="middle" x="48.5" y="-141.5" font-family="Helvetica,sans-Serif" font-size="10.00">AspectDataBase</text>
</a>
</g>
</g>
<!-- Node1&#45;&gt;Node0 -->
<g id="edge1" class="edge">
<title>Node1&#45;&gt;Node0</title>
<path fill="none" stroke="midnightblue" d="M62.06,-126.53C69.57,-117.42 78.79,-106.21 85.95,-97.52"/>
<polygon fill="midnightblue" stroke="midnightblue" points="59.18,-124.53 55.52,-134.48 64.58,-128.98 59.18,-124.53"/>
</g>
<!-- Node2 -->
<g id="node3" class="node">
<title>Node2</title>
<g id="a_node3"><a xlink:href="interface_fifty_one_1_1_geo_location_1_1_core_1_1_data_1_1_i_geo_data.html" target="_top" xlink:title="Represents an object that contains postal address information">
<polygon fill="none" stroke="black" points="115.5,-134.5 115.5,-153.5 177.5,-153.5 177.5,-134.5 115.5,-134.5"/>
<text text-anchor="middle" x="146.5" y="-141.5" font-family="Helvetica,sans-Serif" font-size="10.00">IGeoData</text>
</a>
</g>
</g>
<!-- Node2&#45;&gt;Node0 -->
<g id="edge2" class="edge">
<title>Node2&#45;&gt;Node0</title>
<path fill="none" stroke="midnightblue" d="M132.94,-126.53C125.43,-117.42 116.21,-106.21 109.05,-97.52"/>
<polygon fill="midnightblue" stroke="midnightblue" points="130.42,-128.98 139.48,-134.48 135.82,-124.53 130.42,-128.98"/>
</g>
<!-- Node3 -->
<g id="node4" class="node">
<title>Node3</title>
<g id="a_node4"><a xlink:title=" ">
<polygon fill="none" stroke="#bfbfbf" points="108.5,-190.5 108.5,-209.5 184.5,-209.5 184.5,-190.5 108.5,-190.5"/>
<text text-anchor="middle" x="146.5" y="-197.5" font-family="Helvetica,sans-Serif" font-size="10.00">IAspectData</text>
</a>
</g>
</g>
<!-- Node3&#45;&gt;Node2 -->
<g id="edge3" class="edge">
<title>Node3&#45;&gt;Node2</title>
<path fill="none" stroke="midnightblue" d="M146.5,-179.8C146.5,-170.91 146.5,-160.78 146.5,-153.75"/>
<polygon fill="midnightblue" stroke="midnightblue" points="143,-180.08 146.5,-190.08 150,-180.08 143,-180.08"/>
</g>
</g>
</svg>
