<?xml version="1.0" encoding="UTF-8" standalone="no"?>
<!DOCTYPE svg PUBLIC "-//W3C//DTD SVG 1.1//EN"
 "http://www.w3.org/Graphics/SVG/1.1/DTD/svg11.dtd">
<!-- Generated by graphviz version 2.43.0 (0)
 -->
<!-- Title: FiftyOne.GeoLocation.Core.Data.IGeoData Pages: 1 -->
<svg width="163pt" height="229pt"
 viewBox="0.00 0.00 163.00 229.00" xmlns="http://www.w3.org/2000/svg" xmlns:xlink="http://www.w3.org/1999/xlink">
<g id="graph0" class="graph" transform="scale(1 1) rotate(0) translate(4 225)">
<title>FiftyOne.GeoLocation.Core.Data.IGeoData</title>
<!-- Node0 -->
<g id="node1" class="node">
<title>Node0</title>
<g id="a_node1"><a xlink:title="Represents an object that contains postal address information">
<polygon fill="#bfbfbf" stroke="black" points="3,-134.5 3,-164.5 152,-164.5 152,-134.5 3,-134.5"/>
<text text-anchor="start" x="11" y="-152.5" font-family="Helvetica,sans-Serif" font-size="10.00">FiftyOne.GeoLocation.Core.</text>
<text text-anchor="middle" x="77.5" y="-141.5" font-family="Helvetica,sans-Serif" font-size="10.00">Data.IGeoData</text>
</a>
</g>
</g>
<!-- Node2 -->
<g id="node3" class="node">
<title>Node2</title>
<g id="a_node3"><a xlink:href="class_fifty_one_1_1_geo_location_1_1_core_1_1_data_1_1_geo_data.html" target="_top" xlink:title="Data class that contains postal address information">
<polygon fill="none" stroke="black" points="3,-67.5 3,-97.5 152,-97.5 152,-67.5 3,-67.5"/>
<text text-anchor="start" x="11" y="-85.5" font-family="Helvetica,sans-Serif" font-size="10.00">FiftyOne.GeoLocation.Core.</text>
<text text-anchor="middle" x="77.5" y="-74.5" font-family="Helvetica,sans-Serif" font-size="10.00">Data.GeoData</text>
</a>
</g>
</g>
<!-- Node0&#45;&gt;Node2 -->
<g id="edge2" class="edge">
<title>Node0&#45;&gt;Node2</title>
<path fill="none" stroke="midnightblue" d="M77.5,-124.11C77.5,-115.15 77.5,-105.32 77.5,-97.58"/>
<polygon fill="midnightblue" stroke="midnightblue" points="74,-124.4 77.5,-134.4 81,-124.4 74,-124.4"/>
</g>
<!-- Node1 -->
<g id="node2" class="node">
<title>Node1</title>
<g id="a_node2"><a xlink:title=" ">
<polygon fill="none" stroke="#bfbfbf" points="39.5,-201.5 39.5,-220.5 115.5,-220.5 115.5,-201.5 39.5,-201.5"/>
<text text-anchor="middle" x="77.5" y="-208.5" font-family="Helvetica,sans-Serif" font-size="10.00">IAspectData</text>
</a>
</g>
</g>
<!-- Node1&#45;&gt;Node0 -->
<g id="edge1" class="edge">
<title>Node1&#45;&gt;Node0</title>
<path fill="none" stroke="midnightblue" d="M77.5,-191.23C77.5,-182.59 77.5,-172.5 77.5,-164.52"/>
<polygon fill="midnightblue" stroke="midnightblue" points="74,-191.48 77.5,-201.48 81,-191.48 74,-191.48"/>
</g>
<!-- Node3 -->
<g id="node4" class="node">
<title>Node3</title>
<g id="a_node4"><a xlink:href="class_fifty_one_1_1_geo_location_1_1_cloud_1_1_data_1_1_geo_data_cloud.html" target="_top" xlink:title=" ">
<polygon fill="none" stroke="black" points="0,-0.5 0,-30.5 155,-30.5 155,-0.5 0,-0.5"/>
<text text-anchor="start" x="8" y="-18.5" font-family="Helvetica,sans-Serif" font-size="10.00">FiftyOne.GeoLocation.Cloud.</text>
<text text-anchor="middle" x="77.5" y="-7.5" font-family="Helvetica,sans-Serif" font-size="10.00">Data.GeoDataCloud</text>
</a>
</g>
</g>
<!-- Node2&#45;&gt;Node3 -->
<g id="edge3" class="edge">
<title>Node2&#45;&gt;Node3</title>
<path fill="none" stroke="midnightblue" d="M77.5,-57.11C77.5,-48.15 77.5,-38.32 77.5,-30.58"/>
<polygon fill="midnightblue" stroke="midnightblue" points="74,-57.4 77.5,-67.4 81,-57.4 74,-57.4"/>
</g>
</g>
</svg>
