<?xml version="1.0" encoding="UTF-8" standalone="no"?>
<!DOCTYPE svg PUBLIC "-//W3C//DTD SVG 1.1//EN"
 "http://www.w3.org/Graphics/SVG/1.1/DTD/svg11.dtd">
<!-- Generated by graphviz version 2.43.0 (0)
 -->
<!-- Title: FiftyOne.GeoLocation.Core.Data.GeoData Pages: 1 -->
<svg width="193pt" height="151pt"
 viewBox="0.00 0.00 192.50 151.00" xmlns="http://www.w3.org/2000/svg" xmlns:xlink="http://www.w3.org/1999/xlink">
<g id="graph0" class="graph" transform="scale(1 1) rotate(0) translate(4 147)">
<title>FiftyOne.GeoLocation.Core.Data.GeoData</title>
<!-- Node5 -->
<g id="node1" class="node">
<title>Node5</title>
<g id="a_node1"><a xlink:title="Data class that contains postal address information">
<polygon fill="#bfbfbf" stroke="black" points="23,-0.5 23,-30.5 172,-30.5 172,-0.5 23,-0.5"/>
<text text-anchor="start" x="31" y="-18.5" font-family="Helvetica,sans-Serif" font-size="10.00">FiftyOne.GeoLocation.Core.</text>
<text text-anchor="middle" x="97.5" y="-7.5" font-family="Helvetica,sans-Serif" font-size="10.00">Data.GeoData</text>
</a>
</g>
</g>
<!-- Node6 -->
<g id="node2" class="node">
<title>Node6</title>
<g id="a_node2"><a xlink:title=" ">
<polygon fill="none" stroke="#bfbfbf" points="0,-67.5 0,-86.5 97,-86.5 97,-67.5 0,-67.5"/>
<text text-anchor="middle" x="48.5" y="-74.5" font-family="Helvetica,sans-Serif" font-size="10.00">AspectDataBase</text>
</a>
</g>
</g>
<!-- Node6&#45;&gt;Node5 -->
<g id="edge1" class="edge">
<title>Node6&#45;&gt;Node5</title>
<path fill="none" stroke="midnightblue" d="M62.06,-59.53C69.57,-50.42 78.79,-39.21 85.95,-30.52"/>
<polygon fill="midnightblue" stroke="midnightblue" points="59.18,-57.53 55.52,-67.48 64.58,-61.98 59.18,-57.53"/>
</g>
<!-- Node7 -->
<g id="node3" class="node">
<title>Node7</title>
<g id="a_node3"><a xlink:href="interface_fifty_one_1_1_geo_location_1_1_core_1_1_data_1_1_i_geo_data.html" target="_top" xlink:title="Represents an object that contains postal address information">
<polygon fill="none" stroke="black" points="115.5,-67.5 115.5,-86.5 177.5,-86.5 177.5,-67.5 115.5,-67.5"/>
<text text-anchor="middle" x="146.5" y="-74.5" font-family="Helvetica,sans-Serif" font-size="10.00">IGeoData</text>
</a>
</g>
</g>
<!-- Node7&#45;&gt;Node5 -->
<g id="edge2" class="edge">
<title>Node7&#45;&gt;Node5</title>
<path fill="none" stroke="midnightblue" d="M132.94,-59.53C125.43,-50.42 116.21,-39.21 109.05,-30.52"/>
<polygon fill="midnightblue" stroke="midnightblue" points="130.42,-61.98 139.48,-67.48 135.82,-57.53 130.42,-61.98"/>
</g>
<!-- Node8 -->
<g id="node4" class="node">
<title>Node8</title>
<g id="a_node4"><a xlink:title=" ">
<polygon fill="none" stroke="#bfbfbf" points="108.5,-123.5 108.5,-142.5 184.5,-142.5 184.5,-123.5 108.5,-123.5"/>
<text text-anchor="middle" x="146.5" y="-130.5" font-family="Helvetica,sans-Serif" font-size="10.00">IAspectData</text>
</a>
</g>
</g>
<!-- Node8&#45;&gt;Node7 -->
<g id="edge3" class="edge">
<title>Node8&#45;&gt;Node7</title>
<path fill="none" stroke="midnightblue" d="M146.5,-112.8C146.5,-103.91 146.5,-93.78 146.5,-86.75"/>
<polygon fill="midnightblue" stroke="midnightblue" points="143,-113.08 146.5,-123.08 150,-113.08 143,-113.08"/>
</g>
</g>
</svg>
