<?xml version="1.0" encoding="UTF-8" standalone="no"?>
<!DOCTYPE svg PUBLIC "-//W3C//DTD SVG 1.1//EN"
 "http://www.w3.org/Graphics/SVG/1.1/DTD/svg11.dtd">
<!-- Generated by graphviz version 2.43.0 (0)
 -->
<!-- Title: FiftyOne.GeoLocation.Cloud.Data.GeoDataCloud Pages: 1 -->
<svg width="193pt" height="207pt"
 viewBox="0.00 0.00 192.50 207.00" xmlns="http://www.w3.org/2000/svg" xmlns:xlink="http://www.w3.org/1999/xlink">
<g id="graph0" class="graph" transform="scale(1 1) rotate(0) translate(4 203)">
<title>FiftyOne.GeoLocation.Cloud.Data.GeoDataCloud</title>
<!-- Node5 -->
<g id="node1" class="node">
<title>Node5</title>
<g id="a_node1"><a xlink:title=" ">
<polygon fill="#bfbfbf" stroke="black" points="20,-0.5 20,-30.5 175,-30.5 175,-0.5 20,-0.5"/>
<text text-anchor="start" x="28" y="-18.5" font-family="Helvetica,sans-Serif" font-size="10.00">FiftyOne.GeoLocation.Cloud.</text>
<text text-anchor="middle" x="97.5" y="-7.5" font-family="Helvetica,sans-Serif" font-size="10.00">Data.GeoDataCloud</text>
</a>
</g>
</g>
<!-- Node6 -->
<g id="node2" class="node">
<title>Node6</title>
<g id="a_node2"><a xlink:href="class_fifty_one_1_1_geo_location_1_1_core_1_1_data_1_1_geo_data.html" target="_top" xlink:title="Data class that contains postal address information">
<polygon fill="none" stroke="black" points="68,-67.5 68,-86.5 127,-86.5 127,-67.5 68,-67.5"/>
<text text-anchor="middle" x="97.5" y="-74.5" font-family="Helvetica,sans-Serif" font-size="10.00">GeoData</text>
</a>
</g>
</g>
<!-- Node6&#45;&gt;Node5 -->
<g id="edge1" class="edge">
<title>Node6&#45;&gt;Node5</title>
<path fill="none" stroke="midnightblue" d="M97.5,-57.23C97.5,-48.59 97.5,-38.5 97.5,-30.52"/>
<polygon fill="midnightblue" stroke="midnightblue" points="94,-57.48 97.5,-67.48 101,-57.48 94,-57.48"/>
</g>
<!-- Node7 -->
<g id="node3" class="node">
<title>Node7</title>
<g id="a_node3"><a xlink:title=" ">
<polygon fill="none" stroke="#bfbfbf" points="0,-123.5 0,-142.5 97,-142.5 97,-123.5 0,-123.5"/>
<text text-anchor="middle" x="48.5" y="-130.5" font-family="Helvetica,sans-Serif" font-size="10.00">AspectDataBase</text>
</a>
</g>
</g>
<!-- Node7&#45;&gt;Node6 -->
<g id="edge2" class="edge">
<title>Node7&#45;&gt;Node6</title>
<path fill="none" stroke="midnightblue" d="M63.53,-115.43C72.12,-105.97 82.54,-94.48 89.56,-86.75"/>
<polygon fill="midnightblue" stroke="midnightblue" points="60.72,-113.33 56.59,-123.08 65.9,-118.03 60.72,-113.33"/>
</g>
<!-- Node8 -->
<g id="node4" class="node">
<title>Node8</title>
<g id="a_node4"><a xlink:href="interface_fifty_one_1_1_geo_location_1_1_core_1_1_data_1_1_i_geo_data.html" target="_top" xlink:title="Represents an object that contains postal address information">
<polygon fill="none" stroke="black" points="115.5,-123.5 115.5,-142.5 177.5,-142.5 177.5,-123.5 115.5,-123.5"/>
<text text-anchor="middle" x="146.5" y="-130.5" font-family="Helvetica,sans-Serif" font-size="10.00">IGeoData</text>
</a>
</g>
</g>
<!-- Node8&#45;&gt;Node6 -->
<g id="edge3" class="edge">
<title>Node8&#45;&gt;Node6</title>
<path fill="none" stroke="midnightblue" d="M131.47,-115.43C122.88,-105.97 112.46,-94.48 105.44,-86.75"/>
<polygon fill="midnightblue" stroke="midnightblue" points="129.1,-118.03 138.41,-123.08 134.28,-113.33 129.1,-118.03"/>
</g>
<!-- Node9 -->
<g id="node5" class="node">
<title>Node9</title>
<g id="a_node5"><a xlink:title=" ">
<polygon fill="none" stroke="#bfbfbf" points="108.5,-179.5 108.5,-198.5 184.5,-198.5 184.5,-179.5 108.5,-179.5"/>
<text text-anchor="middle" x="146.5" y="-186.5" font-family="Helvetica,sans-Serif" font-size="10.00">IAspectData</text>
</a>
</g>
</g>
<!-- Node9&#45;&gt;Node8 -->
<g id="edge4" class="edge">
<title>Node9&#45;&gt;Node8</title>
<path fill="none" stroke="midnightblue" d="M146.5,-168.8C146.5,-159.91 146.5,-149.78 146.5,-142.75"/>
<polygon fill="midnightblue" stroke="midnightblue" points="143,-169.08 146.5,-179.08 150,-169.08 143,-169.08"/>
</g>
</g>
</svg>
