<?xml version="1.0" encoding="UTF-8" standalone="no"?>
<!DOCTYPE svg PUBLIC "-//W3C//DTD SVG 1.1//EN"
 "http://www.w3.org/Graphics/SVG/1.1/DTD/svg11.dtd">
<!-- Generated by graphviz version 2.43.0 (0)
 -->
<!-- Title: Graphical Class Hierarchy Pages: 1 -->
<svg width="645pt" height="78pt"
 viewBox="0.00 0.00 645.00 77.50" xmlns="http://www.w3.org/2000/svg" xmlns:xlink="http://www.w3.org/1999/xlink">
<g id="graph0" class="graph" transform="scale(1 1) rotate(0) translate(4 73.5)">
<title>Graphical Class Hierarchy</title>
<!-- Node29 -->
<g id="node1" class="node">
<title>Node29</title>
<g id="a_node1"><a xlink:title=" ">
<polygon fill="none" stroke="#bfbfbf" points="138,-50 138,-69 235,-69 235,-50 138,-50"/>
<text text-anchor="middle" x="186.5" y="-57" font-family="Helvetica,sans-Serif" font-size="10.00">AspectDataBase</text>
</a>
</g>
</g>
<!-- Node1 -->
<g id="node2" class="node">
<title>Node1</title>
<g id="a_node2"><a xlink:href="class_fifty_one_1_1_geo_location_1_1_core_1_1_data_1_1_geo_data.html" target="_top" xlink:title="Data class that contains postal address information">
<polygon fill="none" stroke="black" points="297,-22.5 297,-52.5 446,-52.5 446,-22.5 297,-22.5"/>
<text text-anchor="start" x="305" y="-40.5" font-family="Helvetica,sans-Serif" font-size="10.00">FiftyOne.GeoLocation.Core.</text>
<text text-anchor="middle" x="371.5" y="-29.5" font-family="Helvetica,sans-Serif" font-size="10.00">Data.GeoData</text>
</a>
</g>
</g>
<!-- Node29&#45;&gt;Node1 -->
<g id="edge1" class="edge">
<title>Node29&#45;&gt;Node1</title>
<path fill="none" stroke="midnightblue" d="M245.09,-52.58C261.52,-50.6 279.64,-48.42 296.88,-46.35"/>
<polygon fill="midnightblue" stroke="midnightblue" points="244.61,-49.11 235.1,-53.78 245.45,-56.06 244.61,-49.11"/>
</g>
<!-- Node2 -->
<g id="node3" class="node">
<title>Node2</title>
<g id="a_node3"><a xlink:href="class_fifty_one_1_1_geo_location_1_1_cloud_1_1_data_1_1_geo_data_cloud.html" target="_top" xlink:title=" ">
<polygon fill="none" stroke="black" points="482,-22.5 482,-52.5 637,-52.5 637,-22.5 482,-22.5"/>
<text text-anchor="start" x="490" y="-40.5" font-family="Helvetica,sans-Serif" font-size="10.00">FiftyOne.GeoLocation.Cloud.</text>
<text text-anchor="middle" x="559.5" y="-29.5" font-family="Helvetica,sans-Serif" font-size="10.00">Data.GeoDataCloud</text>
</a>
</g>
</g>
<!-- Node1&#45;&gt;Node2 -->
<g id="edge2" class="edge">
<title>Node1&#45;&gt;Node2</title>
<path fill="none" stroke="midnightblue" d="M456.04,-37.5C464.63,-37.5 473.34,-37.5 481.86,-37.5"/>
<polygon fill="midnightblue" stroke="midnightblue" points="456.01,-34 446.01,-37.5 456.01,-41 456.01,-34"/>
</g>
<!-- Node10 -->
<g id="node4" class="node">
<title>Node10</title>
<g id="a_node4"><a xlink:title=" ">
<polygon fill="none" stroke="#bfbfbf" points="0,-6 0,-25 76,-25 76,-6 0,-6"/>
<text text-anchor="middle" x="38" y="-13" font-family="Helvetica,sans-Serif" font-size="10.00">IAspectData</text>
</a>
</g>
</g>
<!-- Node0 -->
<g id="node5" class="node">
<title>Node0</title>
<g id="a_node5"><a xlink:href="interface_fifty_one_1_1_geo_location_1_1_core_1_1_data_1_1_i_geo_data.html" target="_top" xlink:title="Represents an object that contains postal address information">
<polygon fill="none" stroke="black" points="112,-0.5 112,-30.5 261,-30.5 261,-0.5 112,-0.5"/>
<text text-anchor="start" x="120" y="-18.5" font-family="Helvetica,sans-Serif" font-size="10.00">FiftyOne.GeoLocation.Core.</text>
<text text-anchor="middle" x="186.5" y="-7.5" font-family="Helvetica,sans-Serif" font-size="10.00">Data.IGeoData</text>
</a>
</g>
</g>
<!-- Node10&#45;&gt;Node0 -->
<g id="edge3" class="edge">
<title>Node10&#45;&gt;Node0</title>
<path fill="none" stroke="midnightblue" d="M86.62,-15.5C94.66,-15.5 103.18,-15.5 111.71,-15.5"/>
<polygon fill="midnightblue" stroke="midnightblue" points="86.35,-12 76.35,-15.5 86.35,-19 86.35,-12"/>
</g>
<!-- Node0&#45;&gt;Node1 -->
<g id="edge4" class="edge">
<title>Node0&#45;&gt;Node1</title>
<path fill="none" stroke="midnightblue" d="M271.11,-25.55C279.65,-26.58 288.28,-27.62 296.71,-28.63"/>
<polygon fill="midnightblue" stroke="midnightblue" points="271.49,-22.07 261.14,-24.35 270.65,-29.02 271.49,-22.07"/>
</g>
</g>
</svg>
